<svg width="25" height="24" viewBox="0 0 25 24" fill="none" xmlns="http://www.w3.org/2000/svg">
<mask id="mask0_4701_328864" style="mask-type:alpha" maskUnits="userSpaceOnUse" x="0" y="0" width="25" height="24">
<rect x="0.199951" width="24" height="24" fill="#D9D9D9"/>
</mask>
<g mask="url(#mask0_4701_328864)">
<path d="M16.2 10C16.4833 10 16.7208 9.90417 16.9125 9.7125C17.1041 9.52083 17.2 9.28333 17.2 9C17.2 8.71667 17.1041 8.47917 16.9125 8.2875C16.7208 8.09583 16.4833 8 16.2 8H13.2C12.9166 8 12.6791 8.09583 12.4875 8.2875C12.2958 8.47917 12.2 8.71667 12.2 9C12.2 9.28333 12.2958 9.52083 12.4875 9.7125C12.6791 9.90417 12.9166 10 13.2 10H16.2ZM16.2 16C16.4833 16 16.7208 15.9042 16.9125 15.7125C17.1041 15.5208 17.2 15.2833 17.2 15C17.2 14.7167 17.1041 14.4792 16.9125 14.2875C16.7208 14.0958 16.4833 14 16.2 14H13.2C12.9166 14 12.6791 14.0958 12.4875 14.2875C12.2958 14.4792 12.2 14.7167 12.2 15C12.2 15.2833 12.2958 15.5208 12.4875 15.7125C12.6791 15.9042 12.9166 16 13.2 16H16.2ZM9.19995 11C9.74995 11 10.2208 10.8042 10.6125 10.4125C11.0041 10.0208 11.2 9.55 11.2 9C11.2 8.45 11.0041 7.97917 10.6125 7.5875C10.2208 7.19583 9.74995 7 9.19995 7C8.64995 7 8.17912 7.19583 7.78745 7.5875C7.39578 7.97917 7.19995 8.45 7.19995 9C7.19995 9.55 7.39578 10.0208 7.78745 10.4125C8.17912 10.8042 8.64995 11 9.19995 11ZM9.19995 17C9.74995 17 10.2208 16.8042 10.6125 16.4125C11.0041 16.0208 11.2 15.55 11.2 15C11.2 14.45 11.0041 13.9792 10.6125 13.5875C10.2208 13.1958 9.74995 13 9.19995 13C8.64995 13 8.17912 13.1958 7.78745 13.5875C7.39578 13.9792 7.19995 14.45 7.19995 15C7.19995 15.55 7.39578 16.0208 7.78745 16.4125C8.17912 16.8042 8.64995 17 9.19995 17ZM5.19995 21C4.64995 21 4.17912 20.8042 3.78745 20.4125C3.39578 20.0208 3.19995 19.55 3.19995 19V5C3.19995 4.45 3.39578 3.97917 3.78745 3.5875C4.17912 3.19583 4.64995 3 5.19995 3H19.2C19.75 3 20.2208 3.19583 20.6125 3.5875C21.0041 3.97917 21.2 4.45 21.2 5V19C21.2 19.55 21.0041 20.0208 20.6125 20.4125C20.2208 20.8042 19.75 21 19.2 21H5.19995ZM5.19995 19H19.2V5H5.19995V19Z" fill="#949BB3"/>
</g>
</svg>
